<?xml version="1.0" encoding="UTF-8"?><svg id="a" xmlns="http://www.w3.org/2000/svg" viewBox="0 0 1046.25 384.1"><path d="M876.55,346.79c33.4-55.57,66.3-110.32,99.28-165.2-24.85-24.8-49.52-49.42-73.68-73.54,35.96-36.18,71.5-71.93,107.41-108.05V4.95c0,54,.1,107.99-.12,161.99-.03,6.93,1.58,12.16,6.91,16.98,9.35,8.46,17.99,17.71,26.92,26.65,1.16,1.16,2.26,2.38,2.97,3.13-56.8,56.95-113.43,113.71-169.97,170.4-56.23-56.35-112.78-113.02-169.22-169.57,12.11-11.94,24.6-24.24,36.38-35.85V.1c35.74,35.73,71.51,71.49,107.53,107.5-24.19,24.18-48.92,48.91-73.75,73.73,33.1,55.14,65.93,109.82,99.33,165.46Zm-106.18-198.19c14.24-14.2,28.31-28.25,42.74-42.64-13.88-13.72-28.02-27.71-42.74-42.26v84.9Zm170.75-41.82c13.55,13.56,27.58,27.59,41.34,41.35V65.42c-13.99,14-28.02,28.03-41.34,41.36Zm-195.39,107.03c16.91,16.9,33.77,33.75,48.99,48.96-11.45-19.07-24.16-40.23-36.8-61.27-4.52,4.56-8.71,8.79-12.2,12.31Zm249.56-12.48c-12.73,21.2-25.29,42.14-37.81,62.99,16.87-16.84,33.68-33.63,50.1-50.03-3.71-3.92-7.78-8.21-12.29-12.96Z"/><path d="M477.01,308.69h-47.67c-23.62-27.07-47.37-54.3-71.13-81.53l-1.02,.36v81.12h-36.94V44.91h36.57V212.69l1.19,.67c22.2-21.95,44.41-43.89,66.58-65.81h45.54c-24.71,24.06-48.79,47.51-73.09,71.17,26.6,29.93,53.04,59.67,79.98,89.97Z"/><path d="M252.64,147.51h36.47c.16,1.13,.44,2.22,.44,3.31-.01,27.92,.12,55.84-.17,83.75-.13,11.96-1.78,23.8-5.23,35.36-7.25,24.34-23.44,38.68-48.2,43.48-19.74,3.83-39.36,3.13-58.61-2.78-21.46-6.59-33.85-21.76-39.52-43-3.32-12.44-4.62-25.14-4.67-37.96-.11-26.25-.06-52.51-.06-78.77,0-.97,.09-1.94,.16-3.18h36.8c0,1.99,0,3.78,0,5.56,0,27.75-.13,55.5,.09,83.25,.05,6.77,.67,13.65,2.06,20.26,2.9,13.87,12.21,22.05,26.27,24.3,8.11,1.29,16.18,1.49,24.3,.19,17.32-2.77,26.51-11.97,28.8-29.33,.69-5.25,1.01-10.59,1.03-15.89,.1-27.58,.05-55.17,.05-82.75v-5.79Z"/><path d="M0,179.93v-32.51H28.14c0-2.18,0-3.95,0-5.72,.04-14.62-.03-29.24,.15-43.85,.11-9.18,1.61-18.18,4.88-26.81,5.52-14.52,15.53-24.01,30.89-27.56,13.52-3.13,26.99-2.79,40.45,.28,.64,.15,1.28,.36,1.9,.6,.45,.17,.87,.44,1.4,.72v32.45c-3.21-1.11-6.08-2.67-9.1-3.02-5.22-.62-10.64-1.27-15.76-.5-9.45,1.42-15.76,8.88-16.62,20.28-1.01,13.22-.9,26.52-1.21,39.79-.1,4.28-.02,8.55-.02,13.23h38.5v32.43h-38.42v128.98H28.24V179.93H0Z"/><path d="M609.2,168.17c-8.57,5.86-17.02,11.65-25.65,17.56-.56-.64-1.1-1.04-1.34-1.57-6.32-14.13-26.51-18.14-39.33-12.06-10.23,4.85-14.86,18.83-3.45,27.08,5.58,4.03,11.92,7.14,18.21,10.03,11.43,5.25,23.29,9.6,34.58,15.12,8.77,4.28,15.97,10.86,20.29,19.87,11.81,24.63,.91,53.45-24.49,64.55-13.17,5.75-27.06,7.62-41.37,6.65-11.49-.78-22.71-2.45-33.17-7.77-10.47-5.32-21.51-17.03-25.91-28.28,9.84-5.37,19.72-10.76,29.9-16.32,1.25,2.64,2.34,5.18,3.64,7.61,3.4,6.38,8.42,11.04,15.19,13.7,9.57,3.75,19.37,4.49,29.29,1.73,7.63-2.12,12.58-7.08,14.52-14.89,1.49-6.01-.02-11.15-4.33-15.53-4.89-4.96-10.99-7.92-17.31-10.53-9.04-3.73-18.21-7.2-27.05-11.35-5.98-2.8-11.67-6.31-17.21-9.94-25.33-16.62-23.57-53.26-.15-69.92,10.21-7.26,21.62-10.78,33.83-11.97,13.9-1.35,27.57-.31,40.41,5.81,9.08,4.33,16.23,10.76,20.91,20.42Z"/></svg>